<svg xmlns="http://www.w3.org/2000/svg" xmlns:xlink="http://www.w3.org/1999/xlink" width="300" zoomAndPan="magnify" viewBox="0 0 224.87999 74.999997" height="100" preserveAspectRatio="xMidYMid meet" version="1.0"><defs><g/><clipPath id="11e4db5057"><path d="M 0 0.0195312 L 224.761719 0.0195312 L 224.761719 74.980469 L 0 74.980469 Z M 0 0.0195312 " clip-rule="nonzero"/></clipPath></defs><g clip-path="url(#11e4db5057)"><path fill="#ffffff" d="M 0 0.0195312 L 224.878906 0.0195312 L 224.878906 74.980469 L 0 74.980469 Z M 0 0.0195312 " fill-opacity="1" fill-rule="nonzero"/><path fill="#ffffff" d="M 0 0.0195312 L 224.878906 0.0195312 L 224.878906 74.980469 L 0 74.980469 Z M 0 0.0195312 " fill-opacity="1" fill-rule="nonzero"/></g><g fill="#000000" fill-opacity="1"><g transform="translate(4.449148, 52.185519)"><g><path d="M 8.859375 -6.28125 C 8.859375 -4.882812 8.4375 -3.613281 7.59375 -2.46875 C 6.757812 -1.320312 5.660156 -0.535156 4.296875 -0.109375 L 11.59375 -0.15625 C 11.707031 -0.15625 11.765625 -0.101562 11.765625 0 C 11.765625 0.03125 11.742188 0.0664062 11.703125 0.109375 C 11.703125 0.140625 11.664062 0.15625 11.59375 0.15625 L 2.421875 0.15625 C 2.304688 0.15625 2.25 0.101562 2.25 0 C 2.25 0 2.25 -0.015625 2.25 -0.046875 C 2.289062 -0.046875 2.3125 -0.0664062 2.3125 -0.109375 C 2.3125 -0.109375 2.328125 -0.109375 2.359375 -0.109375 C 2.359375 -0.109375 2.378906 -0.109375 2.421875 -0.109375 C 3.171875 -0.109375 3.8125 -0.382812 4.34375 -0.9375 C 4.882812 -1.488281 5.15625 -2.144531 5.15625 -2.90625 L 5.15625 -31.09375 C 5.15625 -32.53125 5.570312 -33.8125 6.40625 -34.9375 C 7.25 -36.0625 8.351562 -36.835938 9.71875 -37.265625 L 2.421875 -37.265625 C 2.304688 -37.265625 2.25 -37.320312 2.25 -37.4375 C 2.25 -37.5 2.304688 -37.53125 2.421875 -37.53125 L 11.59375 -37.53125 C 11.664062 -37.53125 11.703125 -37.53125 11.703125 -37.53125 C 11.742188 -37.5 11.765625 -37.46875 11.765625 -37.4375 C 11.765625 -37.394531 11.742188 -37.359375 11.703125 -37.328125 C 11.703125 -37.285156 11.664062 -37.265625 11.59375 -37.265625 C 11.5625 -37.265625 11.523438 -37.265625 11.484375 -37.265625 C 11.453125 -37.265625 11.398438 -37.265625 11.328125 -37.265625 C 10.609375 -37.191406 10.015625 -36.882812 9.546875 -36.34375 C 9.085938 -35.8125 8.859375 -35.191406 8.859375 -34.484375 Z M 8.859375 -6.28125 "/></g></g></g><g fill="#000000" fill-opacity="1"><g transform="translate(18.520375, 52.185519)"><g><path d="M 37.109375 -37.53125 C 37.179688 -37.53125 37.21875 -37.53125 37.21875 -37.53125 C 37.25 -37.5 37.265625 -37.46875 37.265625 -37.4375 C 37.265625 -37.320312 37.210938 -37.265625 37.109375 -37.265625 C 35.929688 -37.265625 34.882812 -36.789062 33.96875 -35.84375 C 33.050781 -34.894531 32.59375 -33.796875 32.59375 -32.546875 L 32.59375 0 C 32.59375 0.101562 32.554688 0.15625 32.484375 0.15625 L 31.046875 0.15625 C 31.003906 0.15625 30.96875 0.140625 30.9375 0.109375 L 7.40625 -31.3125 C 7.226562 -31.5625 7.085938 -31.8125 6.984375 -32.0625 L 6.984375 -1.234375 C 6.984375 -1.160156 6.925781 -1.125 6.8125 -1.125 C 6.78125 -1.125 6.75 -1.144531 6.71875 -1.1875 C 6.71875 -1.1875 6.71875 -1.203125 6.71875 -1.234375 L 6.71875 -3.21875 C 6.175781 -1.75 5.171875 -0.726562 3.703125 -0.15625 L 11.390625 -0.15625 C 11.492188 -0.15625 11.546875 -0.101562 11.546875 0 C 11.546875 0.101562 11.492188 0.15625 11.390625 0.15625 L 2.140625 0.15625 C 2.109375 0.15625 2.09375 0.140625 2.09375 0.109375 C 2.0625 0.0664062 2.046875 0.03125 2.046875 0 C 2.046875 -0.03125 2.0625 -0.0664062 2.09375 -0.109375 C 2.09375 -0.140625 2.109375 -0.15625 2.140625 -0.15625 C 3.359375 -0.15625 4.425781 -0.617188 5.34375 -1.546875 C 6.257812 -2.484375 6.71875 -3.578125 6.71875 -4.828125 L 6.71875 -32.859375 C 6.71875 -32.898438 6.71875 -32.921875 6.71875 -32.921875 C 6.675781 -33.171875 6.65625 -33.421875 6.65625 -33.671875 C 6.65625 -34.460938 6.878906 -35.1875 7.328125 -35.84375 C 7.773438 -36.507812 8.359375 -36.984375 9.078125 -37.265625 L 1.34375 -37.265625 C 1.238281 -37.265625 1.1875 -37.320312 1.1875 -37.4375 C 1.1875 -37.5 1.238281 -37.53125 1.34375 -37.53125 L 10.53125 -37.53125 C 10.632812 -37.53125 10.6875 -37.5 10.6875 -37.4375 C 10.6875 -37.320312 10.632812 -37.265625 10.53125 -37.265625 C 10.132812 -37.265625 9.78125 -37.117188 9.46875 -36.828125 C 9.164062 -36.546875 9.015625 -36.191406 9.015625 -35.765625 C 9.054688 -35.410156 9.164062 -35.109375 9.34375 -34.859375 L 32.328125 -4.1875 L 32.328125 -36.140625 C 32.328125 -36.242188 32.363281 -36.296875 32.4375 -36.296875 C 32.539062 -36.296875 32.59375 -36.242188 32.59375 -36.140625 L 32.59375 -34.15625 C 33.132812 -35.65625 34.140625 -36.691406 35.609375 -37.265625 L 27.921875 -37.265625 C 27.816406 -37.265625 27.765625 -37.320312 27.765625 -37.4375 C 27.765625 -37.5 27.816406 -37.53125 27.921875 -37.53125 Z M 37.109375 -37.53125 "/></g></g></g><g fill="#000000" fill-opacity="1"><g transform="translate(57.135674, 52.185519)"><g><path d="M 20.5625 -19.546875 C 22.675781 -18.578125 24.347656 -17.25 25.578125 -15.5625 C 26.816406 -13.882812 27.4375 -12.0625 27.4375 -10.09375 C 27.4375 -8.195312 26.890625 -6.453125 25.796875 -4.859375 C 24.710938 -3.265625 23.238281 -1.972656 21.375 -0.984375 C 19.507812 -0.00390625 17.429688 0.535156 15.140625 0.640625 C 15.066406 0.640625 14.976562 0.640625 14.875 0.640625 C 14.800781 0.640625 14.726562 0.640625 14.65625 0.640625 L 14.609375 0.640625 C 14.566406 0.640625 14.476562 0.640625 14.34375 0.640625 C 14.15625 0.640625 13.957031 0.640625 13.75 0.640625 C 13.675781 0.640625 13.601562 0.640625 13.53125 0.640625 C 11.382812 0.535156 9.394531 0.0351562 7.5625 -0.859375 C 5.738281 -1.753906 4.273438 -2.953125 3.171875 -4.453125 C 3.097656 -4.523438 3.078125 -4.582031 3.109375 -4.625 L 4.078125 -6.171875 C 4.117188 -6.242188 4.175781 -6.28125 4.25 -6.28125 C 4.3125 -6.25 4.34375 -6.210938 4.34375 -6.171875 C 4.8125 -4.378906 5.90625 -2.875 7.625 -1.65625 C 9.34375 -0.445312 11.3125 0.226562 13.53125 0.375 C 13.601562 0.375 13.675781 0.375 13.75 0.375 L 13.796875 0.375 C 13.867188 0.375 13.945312 0.375 14.03125 0.375 C 14.125 0.375 14.226562 0.375 14.34375 0.375 C 14.519531 0.375 14.695312 0.375 14.875 0.375 C 16.664062 0.300781 18.296875 -0.117188 19.765625 -0.890625 C 21.234375 -1.660156 22.394531 -2.648438 23.25 -3.859375 C 24.113281 -5.078125 24.546875 -6.441406 24.546875 -7.953125 C 24.546875 -9.484375 24.050781 -10.910156 23.0625 -12.234375 C 22.082031 -13.566406 20.75 -14.59375 19.0625 -15.3125 L 8.8125 -19.703125 C 6.84375 -20.566406 5.285156 -21.765625 4.140625 -23.296875 C 2.992188 -24.835938 2.421875 -26.523438 2.421875 -28.359375 C 2.421875 -30.148438 2.957031 -31.785156 4.03125 -33.265625 C 5.101562 -34.753906 6.539062 -35.9375 8.34375 -36.8125 C 10.15625 -37.6875 12.15625 -38.125 14.34375 -38.125 C 14.476562 -38.125 14.640625 -38.125 14.828125 -38.125 C 16.679688 -38.050781 18.40625 -37.65625 20 -36.9375 C 21.59375 -36.226562 22.925781 -35.265625 24 -34.046875 C 24.070312 -33.972656 24.09375 -33.898438 24.0625 -33.828125 L 23.25 -32.546875 C 23.21875 -32.503906 23.164062 -32.484375 23.09375 -32.484375 C 23.050781 -32.484375 23.015625 -32.519531 22.984375 -32.59375 C 22.441406 -34.0625 21.410156 -35.28125 19.890625 -36.25 C 18.367188 -37.21875 16.660156 -37.738281 14.765625 -37.8125 C 14.765625 -37.8125 14.75 -37.8125 14.71875 -37.8125 C 14.539062 -37.84375 14.414062 -37.859375 14.34375 -37.859375 C 12.65625 -37.859375 11.128906 -37.523438 9.765625 -36.859375 C 8.410156 -36.203125 7.320312 -35.304688 6.5 -34.171875 C 5.675781 -33.046875 5.265625 -31.820312 5.265625 -30.5 C 5.265625 -29.070312 5.710938 -27.765625 6.609375 -26.578125 C 7.503906 -25.398438 8.71875 -24.503906 10.25 -23.890625 Z M 20.5625 -19.546875 "/></g></g></g><g fill="#000000" fill-opacity="1"><g transform="translate(86.674499, 52.185519)"><g><path d="M 21.53125 -37.8125 C 19.5625 -37.769531 17.691406 -37.25 15.921875 -36.25 C 14.148438 -35.25 12.582031 -33.851562 11.21875 -32.0625 C 9.820312 -30.269531 8.753906 -28.226562 8.015625 -25.9375 C 7.285156 -23.644531 6.921875 -21.226562 6.921875 -18.6875 C 6.921875 -16.175781 7.285156 -13.765625 8.015625 -11.453125 C 8.753906 -9.148438 9.820312 -7.101562 11.21875 -5.3125 C 12.582031 -3.519531 14.148438 -2.128906 15.921875 -1.140625 C 17.691406 -0.160156 19.546875 0.359375 21.484375 0.421875 L 21.59375 0.421875 C 21.726562 0.421875 21.832031 0.421875 21.90625 0.421875 C 21.945312 0.421875 22 0.421875 22.0625 0.421875 C 22.132812 0.421875 22.191406 0.421875 22.234375 0.421875 C 25.054688 0.316406 27.628906 -0.691406 29.953125 -2.609375 C 32.285156 -4.523438 34.0625 -7.070312 35.28125 -10.25 C 35.320312 -10.320312 35.375 -10.359375 35.4375 -10.359375 C 35.507812 -10.359375 35.546875 -10.320312 35.546875 -10.25 L 36.953125 -6.546875 C 36.984375 -6.515625 36.984375 -6.476562 36.953125 -6.4375 C 35.160156 -4.21875 32.972656 -2.484375 30.390625 -1.234375 C 27.816406 0.015625 25.113281 0.660156 22.28125 0.703125 L 22.171875 0.703125 C 22.109375 0.703125 22.019531 0.703125 21.90625 0.703125 C 21.800781 0.703125 21.675781 0.703125 21.53125 0.703125 C 18.988281 0.660156 16.546875 0.140625 14.203125 -0.859375 C 11.859375 -1.859375 9.8125 -3.273438 8.0625 -5.109375 C 6.269531 -6.929688 4.890625 -9.015625 3.921875 -11.359375 C 2.953125 -13.703125 2.46875 -16.144531 2.46875 -18.6875 C 2.46875 -21.226562 2.953125 -23.679688 3.921875 -26.046875 C 4.890625 -28.410156 6.269531 -30.503906 8.0625 -32.328125 C 9.8125 -34.117188 11.847656 -35.523438 14.171875 -36.546875 C 16.503906 -37.566406 18.941406 -38.09375 21.484375 -38.125 L 21.640625 -38.125 C 21.710938 -38.125 21.800781 -38.125 21.90625 -38.125 C 21.976562 -38.125 22.101562 -38.125 22.28125 -38.125 C 25.113281 -38.050781 27.804688 -37.394531 30.359375 -36.15625 C 32.921875 -34.925781 35.117188 -33.203125 36.953125 -30.984375 C 36.984375 -30.953125 36.984375 -30.898438 36.953125 -30.828125 L 35.546875 -27.125 C 35.546875 -27.082031 35.507812 -27.0625 35.4375 -27.0625 C 35.375 -27.0625 35.320312 -27.082031 35.28125 -27.125 C 34.0625 -30.34375 32.285156 -32.910156 29.953125 -34.828125 C 27.628906 -36.742188 25.070312 -37.738281 22.28125 -37.8125 L 22.171875 -37.859375 C 22.109375 -37.859375 22.019531 -37.859375 21.90625 -37.859375 C 21.800781 -37.859375 21.675781 -37.84375 21.53125 -37.8125 Z M 21.53125 -37.8125 "/></g></g></g><g fill="#000000" fill-opacity="1"><g transform="translate(125.987991, 52.185519)"><g><path d="M 26.6875 -3.390625 C 26.789062 -3.347656 26.828125 -3.273438 26.796875 -3.171875 L 25.234375 0.046875 C 25.203125 0.0859375 25.1875 0.109375 25.1875 0.109375 C 25.15625 0.140625 25.117188 0.15625 25.078125 0.15625 L 2.625 0.15625 C 2.5625 0.15625 2.5 0.15625 2.4375 0.15625 C 2.382812 0.15625 2.320312 0.15625 2.25 0.15625 C 2.144531 0.15625 2.09375 0.101562 2.09375 0 C 2.09375 -0.101562 2.144531 -0.15625 2.25 -0.15625 L 2.578125 -0.15625 C 3.253906 -0.226562 3.828125 -0.523438 4.296875 -1.046875 C 4.765625 -1.566406 5 -2.1875 5 -2.90625 L 5 -13.109375 C 5 -14.640625 5.476562 -15.992188 6.4375 -17.171875 C 7.40625 -18.359375 8.625 -19.113281 10.09375 -19.4375 C 8.625 -19.757812 7.40625 -20.507812 6.4375 -21.6875 C 5.476562 -22.875 5 -24.21875 5 -25.71875 L 5 -31.09375 C 5 -32.53125 5.414062 -33.8125 6.25 -34.9375 C 7.09375 -36.0625 8.195312 -36.835938 9.5625 -37.265625 L 2.25 -37.265625 C 2.144531 -37.265625 2.09375 -37.320312 2.09375 -37.4375 C 2.09375 -37.5 2.144531 -37.53125 2.25 -37.53125 L 24 -37.53125 C 24.039062 -37.53125 24.039062 -37.53125 24 -37.53125 C 24.039062 -37.53125 24.0625 -37.53125 24.0625 -37.53125 C 24.0625 -37.53125 24.078125 -37.515625 24.109375 -37.484375 C 24.109375 -37.453125 24.109375 -37.4375 24.109375 -37.4375 C 24.109375 -37.4375 24.109375 -37.414062 24.109375 -37.375 L 16.265625 -8 C 16.265625 -7.925781 16.234375 -7.890625 16.171875 -7.890625 C 16.171875 -7.890625 16.148438 -7.890625 16.109375 -7.890625 C 16.035156 -7.890625 16 -7.945312 16 -8.0625 L 19.015625 -19.28125 L 11.4375 -19.28125 C 11.40625 -19.28125 11.359375 -19.28125 11.296875 -19.28125 C 11.242188 -19.28125 11.203125 -19.28125 11.171875 -19.28125 C 10.453125 -19.207031 9.859375 -18.898438 9.390625 -18.359375 C 8.929688 -17.828125 8.703125 -17.203125 8.703125 -16.484375 L 8.703125 -6.28125 C 8.703125 -4.882812 8.28125 -3.625 7.4375 -2.5 C 6.59375 -1.375 5.507812 -0.59375 4.1875 -0.15625 L 12.5625 -0.15625 C 14.851562 -0.15625 17.007812 -0.296875 19.03125 -0.578125 C 21.0625 -0.867188 22.742188 -1.25 24.078125 -1.71875 C 25.421875 -2.1875 26.238281 -2.707031 26.53125 -3.28125 C 26.53125 -3.3125 26.546875 -3.347656 26.578125 -3.390625 C 26.617188 -3.390625 26.65625 -3.390625 26.6875 -3.390625 Z M 11.4375 -19.546875 L 19.0625 -19.546875 L 22.984375 -34.203125 C 23.128906 -34.640625 23.054688 -35.035156 22.765625 -35.390625 C 22.265625 -36.035156 21.09375 -36.507812 19.25 -36.8125 C 17.40625 -37.113281 14.800781 -37.265625 11.4375 -37.265625 C 11.40625 -37.265625 11.359375 -37.265625 11.296875 -37.265625 C 11.242188 -37.265625 11.203125 -37.265625 11.171875 -37.265625 C 10.453125 -37.191406 9.859375 -36.882812 9.390625 -36.34375 C 8.929688 -35.8125 8.703125 -35.191406 8.703125 -34.484375 L 8.703125 -22.34375 C 8.703125 -21.625 8.929688 -21.003906 9.390625 -20.484375 C 9.859375 -19.960938 10.453125 -19.671875 11.171875 -19.609375 C 11.203125 -19.609375 11.242188 -19.597656 11.296875 -19.578125 C 11.359375 -19.554688 11.40625 -19.546875 11.4375 -19.546875 Z M 11.4375 -19.546875 "/></g></g></g><g fill="#000000" fill-opacity="1"><g transform="translate(153.969321, 52.185519)"><g><path d="M 37.109375 -37.53125 C 37.179688 -37.53125 37.21875 -37.53125 37.21875 -37.53125 C 37.25 -37.5 37.265625 -37.46875 37.265625 -37.4375 C 37.265625 -37.320312 37.210938 -37.265625 37.109375 -37.265625 C 35.929688 -37.265625 34.882812 -36.789062 33.96875 -35.84375 C 33.050781 -34.894531 32.59375 -33.796875 32.59375 -32.546875 L 32.59375 -17.71875 C 32.59375 -17.613281 32.554688 -17.5625 32.484375 -17.5625 C 32.378906 -17.5625 32.328125 -17.613281 32.328125 -17.71875 C 32.328125 -18.9375 31.890625 -19.984375 31.015625 -20.859375 C 30.140625 -21.734375 29.070312 -22.171875 27.8125 -22.171875 C 26.5625 -22.171875 25.5 -21.734375 24.625 -20.859375 C 23.75 -19.984375 23.3125 -18.9375 23.3125 -17.71875 C 23.3125 -16.75 23.597656 -15.875 24.171875 -15.09375 L 32.59375 -3.859375 C 32.59375 -3.828125 32.59375 -3.796875 32.59375 -3.765625 L 32.59375 0 C 32.59375 0.101562 32.554688 0.15625 32.484375 0.15625 L 31.046875 0.15625 C 31.003906 0.15625 30.96875 0.140625 30.9375 0.109375 L 7.40625 -31.3125 C 7.226562 -31.5625 7.085938 -31.8125 6.984375 -32.0625 L 6.984375 -1.234375 C 6.984375 -1.160156 6.925781 -1.125 6.8125 -1.125 C 6.75 -1.125 6.71875 -1.160156 6.71875 -1.234375 L 6.71875 -3.21875 C 6.175781 -1.75 5.171875 -0.726562 3.703125 -0.15625 L 11.390625 -0.15625 C 11.492188 -0.15625 11.546875 -0.101562 11.546875 0 C 11.546875 0.101562 11.492188 0.15625 11.390625 0.15625 L 2.140625 0.15625 C 2.078125 0.15625 2.046875 0.101562 2.046875 0 C 2.046875 -0.101562 2.078125 -0.15625 2.140625 -0.15625 C 3.359375 -0.15625 4.425781 -0.617188 5.34375 -1.546875 C 6.257812 -2.484375 6.71875 -3.578125 6.71875 -4.828125 L 6.71875 -32.859375 C 6.71875 -32.898438 6.71875 -32.921875 6.71875 -32.921875 C 6.675781 -33.171875 6.65625 -33.421875 6.65625 -33.671875 C 6.65625 -34.460938 6.878906 -35.1875 7.328125 -35.84375 C 7.773438 -36.507812 8.359375 -36.984375 9.078125 -37.265625 L 1.34375 -37.265625 C 1.238281 -37.265625 1.1875 -37.320312 1.1875 -37.4375 C 1.1875 -37.5 1.238281 -37.53125 1.34375 -37.53125 L 10.53125 -37.53125 C 10.632812 -37.53125 10.6875 -37.5 10.6875 -37.4375 C 10.6875 -37.320312 10.632812 -37.265625 10.53125 -37.265625 C 10.132812 -37.265625 9.78125 -37.117188 9.46875 -36.828125 C 9.164062 -36.546875 9.015625 -36.191406 9.015625 -35.765625 C 9.054688 -35.410156 9.164062 -35.109375 9.34375 -34.859375 L 23.25 -16.328125 C 23.101562 -16.753906 23.03125 -17.21875 23.03125 -17.71875 C 23.03125 -19.039062 23.492188 -20.164062 24.421875 -21.09375 C 25.359375 -22.03125 26.488281 -22.5 27.8125 -22.5 C 28.820312 -22.5 29.738281 -22.203125 30.5625 -21.609375 C 31.382812 -21.023438 31.972656 -20.265625 32.328125 -19.328125 L 32.328125 -36.140625 C 32.328125 -36.242188 32.363281 -36.296875 32.4375 -36.296875 C 32.539062 -36.296875 32.59375 -36.242188 32.59375 -36.140625 L 32.59375 -34.15625 C 33.132812 -35.65625 34.140625 -36.691406 35.609375 -37.265625 L 27.921875 -37.265625 C 27.816406 -37.265625 27.765625 -37.320312 27.765625 -37.4375 C 27.765625 -37.5 27.816406 -37.53125 27.921875 -37.53125 Z M 37.109375 -37.53125 "/></g></g></g><g fill="#000000" fill-opacity="1"><g transform="translate(192.423511, 52.185519)"><g><path d="M 26.6875 -3.390625 C 26.789062 -3.347656 26.828125 -3.273438 26.796875 -3.171875 L 25.234375 0.046875 C 25.203125 0.0859375 25.1875 0.109375 25.1875 0.109375 C 25.15625 0.140625 25.117188 0.15625 25.078125 0.15625 L 2.625 0.15625 C 2.5625 0.15625 2.5 0.15625 2.4375 0.15625 C 2.382812 0.15625 2.320312 0.15625 2.25 0.15625 C 2.144531 0.15625 2.09375 0.101562 2.09375 0 C 2.09375 -0.101562 2.144531 -0.15625 2.25 -0.15625 L 2.578125 -0.15625 C 3.253906 -0.226562 3.828125 -0.523438 4.296875 -1.046875 C 4.765625 -1.566406 5 -2.1875 5 -2.90625 L 5 -13.109375 C 5 -14.640625 5.476562 -15.992188 6.4375 -17.171875 C 7.40625 -18.359375 8.625 -19.113281 10.09375 -19.4375 C 8.625 -19.757812 7.40625 -20.507812 6.4375 -21.6875 C 5.476562 -22.875 5 -24.21875 5 -25.71875 L 5 -31.09375 C 5 -32.53125 5.414062 -33.8125 6.25 -34.9375 C 7.09375 -36.0625 8.195312 -36.835938 9.5625 -37.265625 L 2.25 -37.265625 C 2.144531 -37.265625 2.09375 -37.320312 2.09375 -37.4375 C 2.09375 -37.5 2.144531 -37.53125 2.25 -37.53125 L 24 -37.53125 C 24.039062 -37.53125 24.039062 -37.53125 24 -37.53125 C 24.039062 -37.53125 24.0625 -37.53125 24.0625 -37.53125 C 24.0625 -37.53125 24.078125 -37.515625 24.109375 -37.484375 C 24.109375 -37.453125 24.109375 -37.4375 24.109375 -37.4375 C 24.109375 -37.4375 24.109375 -37.414062 24.109375 -37.375 L 16.265625 -8 C 16.265625 -7.925781 16.234375 -7.890625 16.171875 -7.890625 C 16.171875 -7.890625 16.148438 -7.890625 16.109375 -7.890625 C 16.035156 -7.890625 16 -7.945312 16 -8.0625 L 19.015625 -19.28125 L 11.4375 -19.28125 C 11.40625 -19.28125 11.359375 -19.28125 11.296875 -19.28125 C 11.242188 -19.28125 11.203125 -19.28125 11.171875 -19.28125 C 10.453125 -19.207031 9.859375 -18.898438 9.390625 -18.359375 C 8.929688 -17.828125 8.703125 -17.203125 8.703125 -16.484375 L 8.703125 -6.28125 C 8.703125 -4.882812 8.28125 -3.625 7.4375 -2.5 C 6.59375 -1.375 5.507812 -0.59375 4.1875 -0.15625 L 12.5625 -0.15625 C 14.851562 -0.15625 17.007812 -0.296875 19.03125 -0.578125 C 21.0625 -0.867188 22.742188 -1.25 24.078125 -1.71875 C 25.421875 -2.1875 26.238281 -2.707031 26.53125 -3.28125 C 26.53125 -3.3125 26.546875 -3.347656 26.578125 -3.390625 C 26.617188 -3.390625 26.65625 -3.390625 26.6875 -3.390625 Z M 11.4375 -19.546875 L 19.0625 -19.546875 L 22.984375 -34.203125 C 23.128906 -34.640625 23.054688 -35.035156 22.765625 -35.390625 C 22.265625 -36.035156 21.09375 -36.507812 19.25 -36.8125 C 17.40625 -37.113281 14.800781 -37.265625 11.4375 -37.265625 C 11.40625 -37.265625 11.359375 -37.265625 11.296875 -37.265625 C 11.242188 -37.265625 11.203125 -37.265625 11.171875 -37.265625 C 10.453125 -37.191406 9.859375 -36.882812 9.390625 -36.34375 C 8.929688 -35.8125 8.703125 -35.191406 8.703125 -34.484375 L 8.703125 -22.34375 C 8.703125 -21.625 8.929688 -21.003906 9.390625 -20.484375 C 9.859375 -19.960938 10.453125 -19.671875 11.171875 -19.609375 C 11.203125 -19.609375 11.242188 -19.597656 11.296875 -19.578125 C 11.359375 -19.554688 11.40625 -19.546875 11.4375 -19.546875 Z M 11.4375 -19.546875 "/></g></g></g></svg>